<?xml version="1.0" encoding="utf-8"?>
<!-- Generator: Adobe Illustrator 14.0.0, SVG Export Plug-In . SVG Version: 6.00 Build 43363)  -->
<!DOCTYPE svg PUBLIC "-//W3C//DTD SVG 1.0//EN" "http://www.w3.org/TR/2001/REC-SVG-20010904/DTD/svg10.dtd">
<svg version="1.0" id="Layer_1" xmlns="http://www.w3.org/2000/svg" xmlns:xlink="http://www.w3.org/1999/xlink" x="0px" y="0px"
	 width="800px" height="600px" viewBox="0 0 800 600" enable-background="new 0 0 800 600" xml:space="preserve">
<g>
	<radialGradient id="SVGID_1_" cx="311.9731" cy="248.519" r="186.9679" gradientUnits="userSpaceOnUse">
		<stop  offset="0" style="stop-color:#FCEE21"/>
		<stop  offset="1" style="stop-color:#EF8B22"/>
	</radialGradient>
	<path fill="url(#SVGID_1_)" d="M381.931,302.623l74.608-159.606c-18.929-7.38-39.521-11.436-61.063-11.436
		c-92.885,0-168.182,75.297-168.182,168.182c0,92.883,75.297,168.182,168.182,168.182c62.909,0,117.742-34.547,146.587-85.697
		L381.931,302.623z"/>
	<g>
		<path fill="#FFDD00" d="M385.178,304.498c21.115-45.17,42.23-90.34,63.344-135.51c3.755-8.032,7.51-16.064,11.265-24.097
			c1.092-2.336,0.122-4.579-2.258-5.493c-46.977-18.034-100.031-14.535-144.262,9.324C274.87,169.437,245.707,205.09,232,246.375
			c-14.24,42.889-10.133,90.649,9.992,130.935c19.496,39.026,54.258,69.183,95.058,84.19c37.765,13.892,80.361,13.394,118.039-0.441
			c38.085-13.984,70.184-41.756,90.223-76.936c0.964-1.692,0.466-4.208-1.373-5.123c-44.644-22.198-89.287-44.396-133.93-66.596
			c-8.734-4.343-17.469-8.686-26.203-13.029c-4.313-2.145-8.089,4.337-3.75,6.496c44.644,22.198,89.287,44.396,133.93,66.596
			c8.734,4.343,17.469,8.686,26.203,13.029c-0.458-1.708-0.915-3.415-1.373-5.123c-24.462,42.946-66.901,72.898-115.573,81.504
			c-45.872,8.11-94.154-4.688-130.462-33.663c-35.034-27.958-57.324-69.878-61.165-114.492
			c-3.909-45.395,11.691-90.852,42.202-124.583c45.482-50.285,118.656-66.719,181.732-42.504c-0.752-1.831-1.505-3.662-2.258-5.493
			c-21.114,45.17-42.229,90.34-63.344,135.51c-3.755,8.032-7.509,16.064-11.264,24.097
			C376.649,305.099,383.127,308.885,385.178,304.498z"/>
	</g>
</g>
<g>
	<circle fill="#FFFFFF" cx="321.21" cy="214.189" r="29.288"/>
	<circle cx="332.154" cy="219.502" r="15.753"/>
</g>
<g>
	<path fill="none" stroke="#FFFFFF" stroke-width="30" d="M494.004,333.799c19.902-46.448-1.616-100.233-48.063-120.136"/>
	<path fill="none" stroke="#FFFFFF" stroke-width="30" d="M543.036,354.809c31.505-73.526-2.559-158.67-76.086-190.177"/>
	<circle fill="#FFFFFF" cx="438.646" cy="285.211" r="23.273"/>
</g>
</svg>
